<svg xmlns="http://www.w3.org/2000/svg" viewBox="0 0 64 64" fill="none">
  <path fill="#FFFFFF" d="M10 16c0-6.627 5.373-12 12-12h17.5A6.5 6.5 0 0 1 46 10.5V16l11.18-6.187C60.9 8.084 64 9.94 64 13.053v37.894c0 3.114-3.1 4.969-6.82 3.24L46 48v5.5A6.5 6.5 0 0 1 39.5 60H22c-6.627 0-12-5.373-12-12V16Z"/>
  <path fill="#FFFFFF" d="M32 18c-6.351 0-11.5 5.149-11.5 11.5v8.75c0 1.692-.782 3.003-2.168 3.82a1 1 0 0 0 .043 1.758C20.996 44.879 24.02 46 28 46c2.89 0 5.05.68 6.55 2.02 1.65 1.47 2.45 3.58 2.45 6.32v.14c6.3-1.97 10.5-7.66 10.5-14.62V28.5C47.5 22.149 42.351 17 36 17h-4Z"/>
  <path fill="#FFFFFF" d="M54 22.382 64 17v30l-10-5.382V22.382Z"/>
</svg>
